<?xml version="1.0" standalone="no"?>
<!DOCTYPE svg PUBLIC "-//W3C//DTD SVG 20010904//EN"
 "http://www.w3.org/TR/2001/REC-SVG-20010904/DTD/svg10.dtd">
<svg version="1.0" xmlns="http://www.w3.org/2000/svg"
 width="600.000000pt" height="600.000000pt" viewBox="0 0 600.000000 600.000000"
 preserveAspectRatio="xMidYMid meet">
<metadata>
Created by potrace 1.11, written by Peter Selinger 2001-2013
</metadata>
<g transform="translate(0.000000,600.000000) scale(0.100000,-0.100000)"
fill="#000000" stroke="none">
<path d="M0 3000 l0 -3000 3000 0 3000 0 0 3000 0 3000 -3000 0 -3000 0 0
-3000z m3635 2155 c140 -29 277 -122 340 -229 30 -51 55 -153 55 -224 0 -57
-22 -178 -47 -252 -48 -144 -214 -434 -354 -618 -44 -57 -78 -106 -76 -109 3
-2 49 -14 104 -25 259 -53 598 -197 792 -336 201 -143 358 -320 452 -509 l51
-102 32 7 c17 4 72 7 121 6 119 0 193 -22 234 -69 46 -53 41 -86 -28 -158 -39
-42 -180 -134 -248 -163 -40 -17 -43 -22 -43 -56 0 -140 -49 -321 -135 -493
-296 -595 -1027 -1030 -1910 -1136 -160 -20 -548 -17 -705 5 -438 60 -856 224
-1111 437 l-47 39 -57 -25 c-92 -41 -179 -57 -278 -53 -68 3 -93 9 -115 25
-42 31 -56 63 -48 109 6 32 26 57 116 146 l109 108 -40 74 c-90 167 -129 325
-129 521 0 203 42 365 145 562 160 307 477 605 841 790 51 26 94 50 94 53 0 3
-42 35 -92 70 -128 90 -316 280 -401 407 -126 188 -181 356 -181 553 -1 133
12 197 61 297 59 122 158 206 278 237 236 62 569 -64 979 -372 l119 -89 61 76
c205 258 473 438 737 496 85 18 237 18 324 0z m1600 -934 c141 -72 271 -163
299 -210 41 -70 -13 -143 -141 -191 -32 -12 -130 -38 -218 -57 -223 -49 -268
-63 -262 -82 12 -43 12 -46 -8 -43 -26 4 -55 39 -55 66 0 25 39 66 85 89 49
25 163 55 326 88 154 30 199 47 199 73 0 25 -418 286 -457 286 -25 0 -30 19
-10 39 26 27 115 6 242 -58z m35 -733 c195 -62 286 -150 259 -251 -21 -80
-192 -216 -355 -282 -61 -25 -89 -20 -63 11 7 9 70 63 139 119 132 109 173
148 184 179 10 30 -56 84 -184 150 -123 63 -153 83 -144 98 8 12 85 1 164 -24z"/>
<path d="M3305 5050 c-239 -63 -468 -215 -650 -431 l-76 -91 62 -66 c93 -99
120 -175 79 -221 l-19 -23 6 34 c7 49 -24 104 -98 172 l-62 56 -24 -35 c-13
-20 -39 -66 -58 -103 -85 -167 -107 -305 -81 -506 9 -72 18 -132 21 -134 2 -2
59 5 127 17 207 35 355 44 598 37 124 -3 252 -10 284 -15 69 -11 53 -25 159
134 153 230 275 459 322 605 20 63 29 113 33 193 l5 108 -37 74 c-23 47 -50
85 -75 104 -53 43 -146 86 -209 100 -80 17 -226 13 -307 -9z"/>
<path d="M1485 4961 c-114 -15 -201 -84 -260 -205 -168 -344 73 -859 557
-1189 l67 -45 103 40 c89 34 319 105 400 122 l27 6 -18 53 c-49 143 -61 355
-27 477 20 71 93 234 125 279 25 34 30 29 -119 128 -273 181 -547 310 -708
333 -72 10 -73 10 -147 1z"/>
<path d="M2790 3563 c-60 -5 -282 -39 -348 -54 l-54 -11 57 -34 c56 -34 58
-34 117 -24 33 6 62 9 65 7 2 -3 -16 -13 -40 -23 l-44 -18 74 -74 c322 -319
524 -873 524 -1440 0 -438 -109 -767 -320 -965 l-72 -67 53 5 c181 17 275 29
368 46 116 22 318 74 365 93 17 7 63 23 103 36 92 29 153 87 211 199 90 174
120 320 128 628 7 287 -13 470 -84 748 -99 391 -289 742 -469 871 l-66 47 -54
-17 c-58 -18 -88 -15 -98 10 -5 12 -1 14 15 9 11 -4 34 -1 51 6 27 11 29 14
12 20 -19 8 -408 9 -494 2z m780 -1242 c0 -11 -67 -88 -175 -201 -84 -88 -131
-148 -122 -156 2 -3 33 -9 68 -15 58 -9 216 0 297 17 20 4 23 1 20 -18 -7 -47
-212 -104 -335 -93 -166 15 -200 108 -87 234 122 134 334 282 334 232z"/>
<path d="M4043 3343 c192 -252 334 -635 383 -1033 32 -263 5 -633 -61 -820
l-16 -45 91 90 c215 212 345 448 381 695 14 100 7 258 -17 350 -84 323 -354
614 -729 785 l-76 35 44 -57z"/>
<path d="M1860 3317 c-425 -196 -754 -493 -904 -818 -65 -140 -88 -238 -93
-394 -4 -119 -2 -153 16 -228 69 -291 263 -537 568 -721 216 -129 528 -234
806 -269 85 -11 90 -10 133 13 133 70 242 294 279 576 17 127 20 447 5 579
-36 320 -118 613 -244 870 -116 235 -259 408 -359 434 -71 17 -84 15 -207 -42z
m457 -576 c118 -85 160 -195 114 -297 -22 -48 -64 -84 -98 -84 -70 0 -99 66
-89 202 8 122 8 119 0 151 -6 26 8 57 26 57 4 0 25 -13 47 -29z m-363 -190 c9
-10 22 -35 27 -55 13 -47 -14 -109 -49 -114 -73 -11 -119 110 -65 171 21 22
66 22 87 -2z m-757 -126 c27 -19 46 -76 38 -114 -21 -97 -136 -67 -139 36 -2
76 49 114 101 78z m793 -278 c0 -54 -183 -237 -292 -291 -82 -42 -132 -46
-206 -18 -83 32 -224 140 -253 194 -16 30 9 22 144 -43 167 -80 208 -85 294
-33 34 21 113 75 174 121 110 81 139 96 139 70z"/>
<path d="M2282 2665 c4 -6 17 -50 29 -98 21 -86 39 -106 39 -43 0 41 -21 92
-52 126 -13 14 -20 21 -16 15z"/>
<path d="M4974 2674 c10 -27 33 -130 41 -187 l6 -48 27 17 c53 34 167 122 191
148 17 18 22 29 14 37 -17 17 -111 38 -202 45 -80 7 -84 6 -77 -12z"/>
<path d="M806 1319 c-99 -105 -105 -116 -69 -126 37 -10 203 -10 276 0 l58 9
-65 68 c-35 38 -75 83 -87 99 -13 17 -26 31 -30 31 -4 0 -41 -36 -83 -81z"/>
</g>
</svg>
